<?xml version="1.0" encoding="utf-8"?>
<svg version="1.1" xmlns:xlink="http://www.w3.org/1999/xlink" width="263px" height="238px" xmlns="http://www.w3.org/2000/svg">
  <g transform="matrix(1 0 0 1 -475 -226 )">
    <path d="M 475 226  L 738 226  L 738 464  L 475 464  L 475 226  " fill-rule="nonzero" fill="#cccccc" stroke="none" />
    <path d="M 492 243  L 721 243  L 721 447  L 492 447  L 492 243  " fill-rule="nonzero" fill="#ffffff" stroke="none" />
    <path d="M 629.61 297.4  C 619.614 297.4  611.76 289.546  611.76 279.54999999999995  C 611.76 269.554  619.614 261.7  629.61 261.7  C 639.606 261.7  647.46 269.554  647.46 279.54999999999995  C 647.46 289.546  639.606 297.4  629.61 297.4  " fill-rule="nonzero" fill="#cccccc" stroke="none" />
    <path d="M 498 441  L 498 335.4  L 552.25 287.4  L 628.2 336.7505703422053  L 671.6 316.2  L 715 336.7505703422053  L 715 441  L 498 441  " fill-rule="nonzero" fill="#169bd5" stroke="none" />
  </g>
</svg>